<svg width="31" height="30" viewBox="0 0 31 30" fill="none" xmlns="http://www.w3.org/2000/svg">
<circle cx="15.5527" cy="15" r="14.5" stroke="#A51E1E"/>
<path fill-rule="evenodd" clip-rule="evenodd" d="M22.4436 8.4746C22.5205 8.38671 22.5793 8.28453 22.6167 8.17391C22.654 8.0633 22.6693 7.9464 22.6615 7.8299C22.6537 7.7134 22.623 7.59957 22.5712 7.49492C22.5194 7.39028 22.4475 7.29685 22.3596 7.21999C22.2717 7.14313 22.1696 7.08433 22.0589 7.04695C21.9483 7.00957 21.8314 6.99435 21.7149 7.00215C21.5984 7.00995 21.4846 7.04062 21.3799 7.09241C21.2753 7.1442 21.1819 7.21609 21.105 7.30399L16.563 12.4949L12.7081 7.35554C12.6253 7.24515 12.5179 7.15555 12.3945 7.09384C12.2711 7.03213 12.135 7 11.997 7H8.44158C8.27651 7 8.1147 7.04597 7.97429 7.13275C7.83387 7.21953 7.72039 7.3437 7.64657 7.49134C7.57275 7.63899 7.5415 7.80427 7.55633 7.96867C7.57115 8.13307 7.63146 8.2901 7.7305 8.42216L13.452 16.0503L8.66113 21.5256C8.58427 21.6135 8.52547 21.7156 8.48809 21.8262C8.45071 21.9369 8.43549 22.0538 8.44329 22.1703C8.45109 22.2868 8.48176 22.4006 8.53355 22.5052C8.58534 22.6099 8.65723 22.7033 8.74513 22.7802C8.83302 22.857 8.93519 22.9158 9.04581 22.9532C9.15643 22.9906 9.27332 23.0058 9.38983 22.998C9.50633 22.9902 9.62015 22.9595 9.7248 22.9078C9.82945 22.856 9.92287 22.7841 9.99973 22.6962L14.5418 17.5044L18.3967 22.6437C18.4795 22.7541 18.5868 22.8437 18.7103 22.9054C18.8337 22.9671 18.9698 22.9993 19.1078 22.9993H22.6632C22.8282 22.9993 22.99 22.9533 23.1305 22.8665C23.2709 22.7797 23.3843 22.6556 23.4582 22.5079C23.532 22.3603 23.5632 22.195 23.5484 22.0306C23.5336 21.8662 23.4733 21.7092 23.3742 21.5771L17.6527 13.949L22.4436 8.4746ZM19.5522 21.2216L10.2193 8.7777H11.5526L20.8855 21.2216H19.5522Z" fill="#A51E1E"/>
</svg>
